<?xml version="1.0" encoding="utf-8"?>
<!-- Generator: Adobe Illustrator 16.0.3, SVG Export Plug-In . SVG Version: 6.00 Build 0)  -->
<!DOCTYPE svg PUBLIC "-//W3C//DTD SVG 1.1//EN" "http://www.w3.org/Graphics/SVG/1.1/DTD/svg11.dtd">
<svg version="1.1" id="Warstwa_1_kopia" xmlns="http://www.w3.org/2000/svg" xmlns:xlink="http://www.w3.org/1999/xlink" x="0px"
	 y="0px" width="425.197px" height="425.197px" viewBox="0 0 425.197 425.197" enable-background="new 0 0 425.197 425.197"
	 xml:space="preserve">
<g>
	<path fill-rule="evenodd" clip-rule="evenodd" d="M27.446,194.427c0-3.955,0-7.655,0-11.742c7.724,0,15.28,0,23.181,0
		c-4.008-40.133-7.975-79.845-11.973-119.881c6.188,0,12.147,0,18.426,0c0.693-11.887,5.15-21.675,14.624-28.815
		c6.95-5.237,14.812-7.584,23.486-7.207c18.382,0.799,30.907,13.773,34.41,35.877c5.897,0,11.852,0,18.255,0
		c-1.584,16.061-3.134,31.771-4.727,47.921c9.377,0,18.537,0,27.965,0c0,24.117,0,47.812,0,71.813c4.049,0,7.841,0,12.041,0
		c0-51.678,0-103.455,0-155.452c4.094,0,7.795,0,11.807,0c0,55.668,0,111.441,0,167.486
		C139.286,194.427,83.513,194.427,27.446,194.427z M62.68,182.515c12.339,0,24.279,0,36.625,0c0-23.964,0-47.75,0-71.826
		c10.731,0,21.058,0,31.715,0c1.202-12.087,2.378-23.911,3.579-35.976c-1.851,0-3.09,0-4.329,0c-0.992,0-1.984,0-2.963,0
		c-0.616,1.3-1.117,2.44-1.687,3.544c-6.649,12.877-17.217,20.058-31.691,20.332c-14.653,0.278-25.536-6.68-32.615-19.462
		c-2.731-4.93-3.279-5.287-9.362-3.846C55.516,110.903,59.082,146.55,62.68,182.515z M111.426,182.436c16.069,0,31.847,0,47.531,0
		c0-20.041,0-39.816,0-59.531c-15.985,0-31.675,0-47.531,0C111.426,142.788,111.426,162.474,111.426,182.436z M93.308,86.7
		c13.217-0.021,23.999-10.893,23.936-24.134c-0.063-13.073-10.775-23.781-23.849-23.839c-13.25-0.059-24.1,10.709-24.12,23.941
		C69.255,75.897,80.079,86.722,93.308,86.7z"/>
	<path fill-rule="evenodd" clip-rule="evenodd" d="M387.089,182.79c4.375,0,8.081,0,11.953,0c0,3.975,0,7.676,0,11.643
		c-55.794,0-111.57,0-167.573,0c0-55.79,0-111.566,0-167.528c3.828,0,7.529,0,11.637,0c0,51.778,0,103.556,0,155.564
		c4.191,0,7.979,0,12.043,0c0-47.823,0-95.512,0-143.477c28.055,0,55.837,0,84.03,0c0,23.776,0,47.563,0,71.623
		c16.105,0,31.804,0,47.91,0C387.089,134.675,387.089,158.461,387.089,182.79z M267.509,50.896c0,44.06,0,87.837,0,131.62
		c11.969,0,23.666,0,35.771,0c0-23.965,0-47.75,0-71.943c8.196,0,15.992,0,23.766,0c0-20.108,0-39.804,0-59.677
		C307.165,50.896,287.47,50.896,267.509,50.896z M375.063,122.977c-20.087,0-39.863,0-59.527,0c0,20.047,0,39.824,0,59.52
		c19.991,0,39.679,0,59.527,0C375.063,162.606,375.063,142.919,375.063,122.977z"/>
	<path fill-rule="evenodd" clip-rule="evenodd" d="M255.418,398.406c0-3.961,0-7.66,0-11.633c11.869,0,23.568,0,35.541,0
		c0-16.058,0-31.841,0-47.952c-12.669,0-25.358,0-38.38,0c0.315-1.174,0.44-1.998,0.752-2.745
		c9.869-23.724,19.724-47.453,29.659-71.148c3.494-8.332,11.189-12.06,19.057-9.409c4.705,1.584,7.621,4.962,9.482,9.461
		c5.438,13.139,10.934,26.253,16.411,39.375c0.334,0.8,0.712,1.582,1.327,2.944c2.776-6.646,5.269-12.873,7.969-19.009
		c3.427-7.785,11.107-11.334,18.741-8.793c4.128,1.375,7.196,4.063,8.873,8.067c10.305,24.62,20.546,49.266,30.8,73.907
		c0.088,0.212,0.056,0.475,0.112,1.056c-12.689,0-25.344,0-38.265,0c0,8.121,0,15.908,0,24.106c13.792,0,27.581,0,41.544,0
		c0,4.104,0,7.805,0,11.772C351.255,398.406,303.483,398.406,255.418,398.406z M270.386,326.457c18.051,0,35.692,0,53.622,0
		c-0.348-0.978-0.562-1.678-0.842-2.351c-7.429-17.854-14.82-35.722-22.378-53.521c-0.629-1.481-2.389-2.48-3.622-3.703
		c-1.203,1.266-2.888,2.325-3.533,3.83c-5.604,13.071-11.029,26.22-16.493,39.352C274.899,315.449,272.694,320.85,270.386,326.457z
		 M342.17,338.681c-3.861,0-7.22-0.084-10.569,0.054c-0.962,0.039-2.428,0.464-2.755,1.146c-1.629,3.4-2.954,6.946-4.477,10.665
		c18.152,0,35.724,0,53.379,0c-0.054-0.498-0.01-0.889-0.143-1.207c-7.743-18.644-15.469-37.294-23.34-55.883
		c-0.473-1.113-2.165-2.447-3.204-2.379c-1.083,0.071-2.505,1.525-3.018,2.705c-3.921,9.029-7.729,18.11-11.368,27.256
		c-0.518,1.299-0.302,3.165,0.197,4.544C338.427,329.881,340.279,334.071,342.17,338.681z M316.101,338.877
		c-4.455,0-8.494,0-12.646,0c0,15.967,0,31.736,0,47.553c13.992,0,27.764,0,41.495,0c0-8.028,0-15.809,0-23.906
		c-12.921,0-25.564,0-38.607,0C309.677,354.442,312.84,346.778,316.101,338.877z"/>
	<path fill-rule="evenodd" clip-rule="evenodd" d="M51.3,374.402c0-19.881,0-39.49,0-59.513c-3.92,0-7.719,0-12.018,0
		c0-4.97-0.101-9.546,0.088-14.109c0.037-0.88,1.063-1.9,1.88-2.538c18.022-14.07,36.064-28.114,54.165-42.083
		c1.082-0.834,2.65-1.236,4.049-1.429c9.232-1.27,16.774,1.377,24.132,7.635c14.454,12.289,29.798,23.536,44.858,35.103
		c2.104,1.617,3.028,3.275,2.854,5.937c-0.235,3.589-0.058,7.206-0.058,11.219c-4.04,0-7.838,0-11.903,0c0,20.11,0,39.809,0,59.779
		C123.284,374.402,87.5,374.402,51.3,374.402z M55.754,302.392c33.224,0,65.91,0,99.344,0c-0.968-0.76-1.352-1.063-1.738-1.363
		c-14.094-10.957-28.179-21.924-42.287-32.863c-2.855-2.215-8.876-2.137-11.784,0.121c-13.707,10.643-27.399,21.302-41.09,31.964
		C57.466,300.821,56.797,301.474,55.754,302.392z M75.197,326.942c20.306,0,40.078,0,60.248,0c0,12.04,0,23.824,0,35.527
		c4.103,0,7.801,0,11.571,0c0-15.982,0-31.758,0-47.531c-28.004,0-55.769,0-83.465,0c0,16.034,0,31.811,0,47.54
		c3.988,0,7.687,0,11.646,0C75.197,350.593,75.197,338.9,75.197,326.942z M87.429,362.413c12.078,0,23.854,0,35.528,0
		c0-8.049,0-15.831,0-23.535c-11.989,0-23.676,0-35.528,0C87.429,346.766,87.429,354.457,87.429,362.413z"/>
	<path fill-rule="evenodd" clip-rule="evenodd" d="M243.37,398.485c-4.376,0-8.076,0-11.949,0c0-55.877,0-111.566,0-167.523
		c55.794,0,111.571,0,167.575,0c0,3.797,0,7.584,0,11.649c-51.838,0-103.528,0-155.626,0
		C243.37,294.664,243.37,346.443,243.37,398.485z"/>
	<path fill-rule="evenodd" clip-rule="evenodd" d="M194.978,398.487c-3.972,0-7.673,0-11.644,0c0-51.875,0-103.564,0-155.663
		c-52.052,0-103.832,0-155.838,0c0-4.193,0-7.981,0-11.951c55.833,0,111.522,0,167.481,0
		C194.978,286.661,194.978,342.438,194.978,398.487z"/>
	<path fill-rule="evenodd" clip-rule="evenodd" d="M86.991,170.54c-3.941,0-7.632,0-11.524,0c0-3.845,0-7.537,0-11.534
		c3.683,0,7.466,0,11.524,0C86.991,162.662,86.991,166.442,86.991,170.54z"/>
	<path fill-rule="evenodd" clip-rule="evenodd" d="M87.127,135.004c0,3.854,0,7.544,0,11.467c-3.906,0-7.684,0-11.665,0
		c0-3.782,0-7.474,0-11.467C79.159,135.004,82.941,135.004,87.127,135.004z"/>
	<path fill-rule="evenodd" clip-rule="evenodd" d="M75.442,122.456c0-3.999,0-7.691,0-11.562c3.865,0,7.556,0,11.535,0
		c0,3.743,0,7.525,0,11.562C83.26,122.456,79.482,122.456,75.442,122.456z"/>
	<path fill-rule="evenodd" clip-rule="evenodd" d="M147.088,158.968c0,3.949,0,7.643,0,11.534c-7.848,0-15.535,0-23.527,0
		c0-3.692,0-7.478,0-11.534C131.225,158.968,139,158.968,147.088,158.968z"/>
	<path fill-rule="evenodd" clip-rule="evenodd" d="M147.075,134.912c0,3.857,0,7.551,0,11.52c-7.774,0-15.55,0-23.573,0
		c0-3.747,0-7.528,0-11.52C131.348,134.912,139.122,134.912,147.075,134.912z"/>
	<path fill-rule="evenodd" clip-rule="evenodd" d="M87.166,44.859c4.237,0,7.935,0,12.041,0c0,3.902,0,7.7,0,11.759
		c4.099,0,7.803,0,11.776,0c0,4.055,0,7.841,0,12.043c-3.773,0-7.569,0-11.627,0c0,4.1,0,7.803,0,11.775c-4.054,0-7.842,0-12.042,0
		c0-3.769,0-7.567,0-11.626c-4.1,0-7.803,0-11.776,0c0-4.054,0-7.842,0-12.043c3.77,0,7.568,0,11.628,0
		C87.166,52.669,87.166,48.966,87.166,44.859z"/>
	<path fill-rule="evenodd" clip-rule="evenodd" d="M279.393,170.512c0-3.918,0-7.608,0-11.555c3.838,0,7.616,0,11.621,0
		c0,3.808,0,7.586,0,11.555C287.199,170.512,283.509,170.512,279.393,170.512z"/>
	<path fill-rule="evenodd" clip-rule="evenodd" d="M291.06,110.918c0,3.854,0,7.545,0,11.514c-3.773,0-7.552,0-11.58,0
		c0-3.744,0-7.521,0-11.514C283.231,110.918,286.923,110.918,291.06,110.918z"/>
	<path fill-rule="evenodd" clip-rule="evenodd" d="M315.088,86.889c0,3.952,0,7.642,0,11.577c-3.871,0-7.648,0-11.643,0
		c0-3.841,0-7.619,0-11.577C307.294,86.889,310.984,86.889,315.088,86.889z"/>
	<path fill-rule="evenodd" clip-rule="evenodd" d="M291.075,86.981c0,3.941,0,7.633,0,11.524c-3.845,0-7.537,0-11.534,0
		c0-3.683,0-7.465,0-11.524C283.197,86.981,286.978,86.981,291.075,86.981z"/>
	<path fill-rule="evenodd" clip-rule="evenodd" d="M314.943,74.571c-3.883,0-7.572,0-11.485,0c0-3.917,0-7.695,0-11.667
		c3.811,0,7.502,0,11.485,0C314.943,66.632,314.943,70.413,314.943,74.571z"/>
	<path fill-rule="evenodd" clip-rule="evenodd" d="M291.103,63.013c0,3.854,0,7.543,0,11.467c-3.906,0-7.685,0-11.665,0
		c0-3.781,0-7.473,0-11.467C283.134,63.013,286.916,63.013,291.103,63.013z"/>
	<path fill-rule="evenodd" clip-rule="evenodd" d="M291.016,146.517c-3.82,0-7.513,0-11.492,0c0-3.738,0-7.52,0-11.559
		c3.711,0,7.49,0,11.492,0C291.016,138.771,291.016,142.549,291.016,146.517z"/>
	<path fill-rule="evenodd" clip-rule="evenodd" d="M327.473,134.781c3.939,0,7.541,0,11.45,0c0,3.805,0,7.586,0,11.649
		c-3.645,0-7.425,0-11.45,0C327.473,142.681,327.473,138.902,327.473,134.781z"/>
	<path fill-rule="evenodd" clip-rule="evenodd" d="M363.06,134.906c0,3.882,0,7.572,0,11.531c-3.8,0-7.58,0-11.598,0
		c0-3.771,0-7.55,0-11.531C355.24,134.906,358.932,134.906,363.06,134.906z"/>
	<path fill-rule="evenodd" clip-rule="evenodd" d="M327.463,158.77c3.969,0,7.57,0,11.47,0c0,3.833,0,7.614,0,11.667
		c-3.676,0-7.455,0-11.47,0C327.463,166.658,327.463,162.88,327.463,158.77z"/>
	<path fill-rule="evenodd" clip-rule="evenodd" d="M363.018,170.524c-3.854,0-7.545,0-11.514,0c0-3.771,0-7.553,0-11.58
		c3.744,0,7.521,0,11.514,0C363.018,162.696,363.018,166.388,363.018,170.524z"/>
</g>
</svg>
