<?xml version="1.0" encoding="utf-8"?>
<!-- Generator: Adobe Illustrator 16.0.3, SVG Export Plug-In . SVG Version: 6.00 Build 0)  -->
<!DOCTYPE svg PUBLIC "-//W3C//DTD SVG 1.1//EN" "http://www.w3.org/Graphics/SVG/1.1/DTD/svg11.dtd">
<svg version="1.1" id="Warstwa_1_kopia" xmlns="http://www.w3.org/2000/svg" xmlns:xlink="http://www.w3.org/1999/xlink" x="0px"
	 y="0px" width="425.197px" height="425.197px" viewBox="0 0 425.197 425.197" enable-background="new 0 0 425.197 425.197"
	 xml:space="preserve">
<rect fill-rule="evenodd" clip-rule="evenodd" fill="#FFF3D8" width="425.197" height="425.197"/>
<g>
	<path fill-rule="evenodd" clip-rule="evenodd" fill="#571E19" d="M26.801,194.41c0-3.955,0-7.655,0-11.742
		c7.724,0,15.279,0,23.181,0c-4.009-40.133-7.975-79.845-11.974-119.881c6.188,0,12.147,0,18.426,0
		c0.693-11.887,5.15-21.675,14.624-28.814c6.95-5.237,14.812-7.584,23.486-7.207c18.383,0.799,30.907,13.772,34.41,35.877
		c5.896,0,11.852,0,18.255,0c-1.584,16.062-3.134,31.771-4.727,47.921c9.377,0,18.537,0,27.965,0c0,24.117,0,47.813,0,71.813
		c4.05,0,7.842,0,12.041,0c0-51.678,0-103.455,0-155.452c4.094,0,7.795,0,11.807,0c0,55.668,0,111.441,0,167.486
		C138.641,194.41,82.868,194.41,26.801,194.41z M62.035,182.498c12.339,0,24.278,0,36.625,0c0-23.964,0-47.75,0-71.826
		c10.731,0,21.059,0,31.715,0c1.202-12.087,2.379-23.911,3.579-35.976c-1.852,0-3.091,0-4.329,0c-0.992,0-1.984,0-2.963,0
		c-0.616,1.3-1.117,2.44-1.688,3.545c-6.648,12.877-17.217,20.058-31.69,20.331c-14.653,0.278-25.536-6.68-32.615-19.462
		c-2.731-4.931-3.279-5.287-9.362-3.847C54.87,110.887,58.437,146.534,62.035,182.498z M110.781,182.42c16.069,0,31.847,0,47.53,0
		c0-20.041,0-39.816,0-59.531c-15.985,0-31.675,0-47.53,0C110.781,142.771,110.781,162.458,110.781,182.42z M92.663,86.684
		c13.217-0.021,23.998-10.893,23.936-24.135c-0.063-13.072-10.775-23.78-23.849-23.839c-13.251-0.06-24.101,10.709-24.12,23.94
		C68.609,75.881,79.434,86.705,92.663,86.684z"/>
	<path fill-rule="evenodd" clip-rule="evenodd" fill="#571E19" d="M386.443,182.773c4.375,0,8.081,0,11.953,0
		c0,3.975,0,7.676,0,11.643c-55.794,0-111.57,0-167.573,0c0-55.79,0-111.565,0-167.527c3.828,0,7.529,0,11.637,0
		c0,51.777,0,103.556,0,155.563c4.191,0,7.979,0,12.043,0c0-47.822,0-95.512,0-143.477c28.055,0,55.837,0,84.03,0
		c0,23.776,0,47.563,0,71.623c16.105,0,31.804,0,47.91,0C386.443,134.658,386.443,158.444,386.443,182.773z M266.863,50.879
		c0,44.06,0,87.837,0,131.62c11.969,0,23.666,0,35.771,0c0-23.965,0-47.75,0-71.943c8.196,0,15.992,0,23.766,0
		c0-20.108,0-39.804,0-59.677C306.52,50.879,286.824,50.879,266.863,50.879z M374.417,122.96c-20.087,0-39.863,0-59.527,0
		c0,20.047,0,39.824,0,59.521c19.991,0,39.679,0,59.527,0C374.417,162.59,374.417,142.902,374.417,122.96z"/>
	<path fill-rule="evenodd" clip-rule="evenodd" fill="#571E19" d="M254.772,398.39c0-3.961,0-7.66,0-11.633
		c11.869,0,23.568,0,35.541,0c0-16.058,0-31.841,0-47.952c-12.669,0-25.358,0-38.38,0c0.315-1.174,0.44-1.998,0.752-2.745
		c9.869-23.724,19.724-47.453,29.659-71.148c3.494-8.332,11.189-12.06,19.057-9.409c4.705,1.584,7.621,4.962,9.482,9.461
		c5.438,13.139,10.934,26.253,16.411,39.375c0.334,0.8,0.712,1.582,1.327,2.944c2.776-6.646,5.269-12.873,7.969-19.009
		c3.427-7.785,11.107-11.334,18.741-8.793c4.128,1.375,7.196,4.063,8.873,8.067c10.305,24.62,20.546,49.266,30.8,73.907
		c0.088,0.212,0.056,0.475,0.112,1.056c-12.689,0-25.344,0-38.265,0c0,8.121,0,15.908,0,24.106c13.792,0,27.581,0,41.544,0
		c0,4.104,0,7.805,0,11.772C350.609,398.39,302.838,398.39,254.772,398.39z M269.74,326.44c18.051,0,35.692,0,53.622,0
		c-0.348-0.978-0.562-1.678-0.842-2.351c-7.429-17.854-14.82-35.722-22.378-53.521c-0.629-1.481-2.389-2.48-3.622-3.703
		c-1.203,1.266-2.888,2.325-3.533,3.83c-5.604,13.071-11.029,26.22-16.493,39.352C274.254,315.433,272.049,320.833,269.74,326.44z
		 M341.524,338.664c-3.861,0-7.22-0.084-10.569,0.054c-0.962,0.039-2.428,0.464-2.755,1.146c-1.629,3.4-2.954,6.946-4.477,10.665
		c18.152,0,35.724,0,53.379,0c-0.054-0.498-0.01-0.889-0.143-1.207c-7.743-18.644-15.469-37.294-23.34-55.883
		c-0.473-1.113-2.165-2.447-3.204-2.379c-1.083,0.071-2.505,1.525-3.018,2.705c-3.921,9.029-7.729,18.11-11.368,27.256
		c-0.518,1.299-0.302,3.165,0.197,4.544C337.781,329.864,339.634,334.055,341.524,338.664z M315.455,338.86
		c-4.455,0-8.494,0-12.646,0c0,15.967,0,31.736,0,47.553c13.992,0,27.764,0,41.495,0c0-8.028,0-15.809,0-23.906
		c-12.921,0-25.564,0-38.607,0C309.031,354.426,312.194,346.762,315.455,338.86z"/>
	<path fill-rule="evenodd" clip-rule="evenodd" fill="#571E19" d="M50.654,374.386c0-19.881,0-39.49,0-59.513
		c-3.92,0-7.719,0-12.018,0c0-4.97-0.101-9.546,0.088-14.109c0.037-0.88,1.063-1.9,1.88-2.538
		c18.022-14.07,36.064-28.114,54.165-42.083c1.082-0.834,2.65-1.236,4.049-1.429c9.232-1.27,16.774,1.377,24.133,7.635
		c14.453,12.289,29.798,23.536,44.858,35.103c2.104,1.617,3.028,3.275,2.854,5.937c-0.235,3.589-0.059,7.206-0.059,11.219
		c-4.04,0-7.838,0-11.902,0c0,20.11,0,39.809,0,59.779C122.639,374.386,86.854,374.386,50.654,374.386z M55.108,302.375
		c33.225,0,65.91,0,99.344,0c-0.968-0.76-1.352-1.063-1.738-1.363c-14.094-10.957-28.179-21.924-42.287-32.863
		c-2.855-2.215-8.876-2.137-11.783,0.121c-13.707,10.643-27.399,21.302-41.09,31.964C56.82,300.805,56.152,301.457,55.108,302.375z
		 M74.552,326.926c20.306,0,40.077,0,60.248,0c0,12.04,0,23.824,0,35.527c4.103,0,7.801,0,11.57,0c0-15.982,0-31.758,0-47.531
		c-28.004,0-55.769,0-83.465,0c0,16.034,0,31.811,0,47.54c3.988,0,7.687,0,11.646,0C74.552,350.576,74.552,338.884,74.552,326.926z
		 M86.783,362.396c12.078,0,23.854,0,35.528,0c0-8.049,0-15.831,0-23.535c-11.989,0-23.676,0-35.528,0
		C86.783,346.749,86.783,354.44,86.783,362.396z"/>
	<path fill-rule="evenodd" clip-rule="evenodd" fill="#571E19" d="M242.725,398.469c-4.376,0-8.076,0-11.949,0
		c0-55.877,0-111.566,0-167.523c55.794,0,111.571,0,167.575,0c0,3.797,0,7.584,0,11.649c-51.838,0-103.528,0-155.626,0
		C242.725,294.647,242.725,346.427,242.725,398.469z"/>
	<path fill-rule="evenodd" clip-rule="evenodd" fill="#571E19" d="M194.332,398.471c-3.972,0-7.673,0-11.644,0
		c0-51.875,0-103.564,0-155.663c-52.052,0-103.832,0-155.838,0c0-4.193,0-7.981,0-11.951c55.833,0,111.522,0,167.481,0
		C194.332,286.645,194.332,342.422,194.332,398.471z"/>
	<path fill-rule="evenodd" clip-rule="evenodd" fill="#571E19" d="M86.346,170.523c-3.941,0-7.632,0-11.524,0
		c0-3.845,0-7.536,0-11.534c3.683,0,7.466,0,11.524,0C86.346,162.646,86.346,166.426,86.346,170.523z"/>
	<path fill-rule="evenodd" clip-rule="evenodd" fill="#571E19" d="M86.482,134.987c0,3.854,0,7.544,0,11.468
		c-3.906,0-7.685,0-11.665,0c0-3.782,0-7.474,0-11.468C78.514,134.987,82.296,134.987,86.482,134.987z"/>
	<path fill-rule="evenodd" clip-rule="evenodd" fill="#571E19" d="M74.797,122.439c0-3.999,0-7.691,0-11.563
		c3.865,0,7.557,0,11.535,0c0,3.743,0,7.525,0,11.563C82.615,122.439,78.837,122.439,74.797,122.439z"/>
	<path fill-rule="evenodd" clip-rule="evenodd" fill="#571E19" d="M146.442,158.951c0,3.949,0,7.644,0,11.534
		c-7.848,0-15.534,0-23.527,0c0-3.691,0-7.478,0-11.534C130.579,158.951,138.355,158.951,146.442,158.951z"/>
	<path fill-rule="evenodd" clip-rule="evenodd" fill="#571E19" d="M146.43,134.896c0,3.857,0,7.551,0,11.52
		c-7.774,0-15.55,0-23.573,0c0-3.746,0-7.527,0-11.52C130.702,134.896,138.477,134.896,146.43,134.896z"/>
	<path fill-rule="evenodd" clip-rule="evenodd" fill="#571E19" d="M86.521,44.843c4.237,0,7.935,0,12.041,0c0,3.902,0,7.7,0,11.759
		c4.1,0,7.803,0,11.776,0c0,4.055,0,7.841,0,12.043c-3.773,0-7.569,0-11.627,0c0,4.1,0,7.803,0,11.775c-4.054,0-7.842,0-12.042,0
		c0-3.769,0-7.566,0-11.626c-4.1,0-7.804,0-11.776,0c0-4.054,0-7.842,0-12.043c3.77,0,7.567,0,11.628,0
		C86.521,52.652,86.521,48.949,86.521,44.843z"/>
	<path fill-rule="evenodd" clip-rule="evenodd" fill="#571E19" d="M278.747,170.495c0-3.918,0-7.608,0-11.555
		c3.838,0,7.616,0,11.621,0c0,3.808,0,7.586,0,11.555C286.554,170.495,282.863,170.495,278.747,170.495z"/>
	<path fill-rule="evenodd" clip-rule="evenodd" fill="#571E19" d="M290.414,110.901c0,3.854,0,7.545,0,11.514
		c-3.773,0-7.552,0-11.58,0c0-3.743,0-7.521,0-11.514C282.586,110.901,286.277,110.901,290.414,110.901z"/>
	<path fill-rule="evenodd" clip-rule="evenodd" fill="#571E19" d="M314.442,86.873c0,3.951,0,7.642,0,11.576
		c-3.871,0-7.648,0-11.643,0c0-3.841,0-7.619,0-11.576C306.648,86.873,310.339,86.873,314.442,86.873z"/>
	<path fill-rule="evenodd" clip-rule="evenodd" fill="#571E19" d="M290.43,86.965c0,3.941,0,7.633,0,11.524
		c-3.845,0-7.537,0-11.534,0c0-3.683,0-7.465,0-11.524C282.552,86.965,286.332,86.965,290.43,86.965z"/>
	<path fill-rule="evenodd" clip-rule="evenodd" fill="#571E19" d="M314.298,74.555c-3.883,0-7.572,0-11.485,0
		c0-3.917,0-7.695,0-11.666c3.811,0,7.502,0,11.485,0C314.298,66.615,314.298,70.396,314.298,74.555z"/>
	<path fill-rule="evenodd" clip-rule="evenodd" fill="#571E19" d="M290.457,62.997c0,3.854,0,7.543,0,11.467
		c-3.906,0-7.685,0-11.665,0c0-3.781,0-7.473,0-11.467C282.488,62.997,286.271,62.997,290.457,62.997z"/>
	<path fill-rule="evenodd" clip-rule="evenodd" fill="#571E19" d="M290.37,146.501c-3.82,0-7.513,0-11.492,0c0-3.738,0-7.52,0-11.56
		c3.711,0,7.49,0,11.492,0C290.37,138.755,290.37,142.533,290.37,146.501z"/>
	<path fill-rule="evenodd" clip-rule="evenodd" fill="#571E19" d="M326.827,134.765c3.939,0,7.541,0,11.45,0
		c0,3.805,0,7.586,0,11.649c-3.645,0-7.425,0-11.45,0C326.827,142.664,326.827,138.886,326.827,134.765z"/>
	<path fill-rule="evenodd" clip-rule="evenodd" fill="#571E19" d="M362.414,134.89c0,3.882,0,7.572,0,11.531c-3.8,0-7.58,0-11.598,0
		c0-3.771,0-7.55,0-11.531C354.595,134.89,358.286,134.89,362.414,134.89z"/>
	<path fill-rule="evenodd" clip-rule="evenodd" fill="#571E19" d="M326.817,158.753c3.969,0,7.57,0,11.47,0
		c0,3.833,0,7.614,0,11.667c-3.676,0-7.455,0-11.47,0C326.817,166.642,326.817,162.863,326.817,158.753z"/>
	<path fill-rule="evenodd" clip-rule="evenodd" fill="#571E19" d="M362.372,170.508c-3.854,0-7.545,0-11.514,0
		c0-3.771,0-7.553,0-11.579c3.744,0,7.521,0,11.514,0C362.372,162.68,362.372,166.372,362.372,170.508z"/>
</g>
</svg>
