<?xml version="1.0" encoding="utf-8"?>
<!-- Generator: Adobe Illustrator 16.0.3, SVG Export Plug-In . SVG Version: 6.00 Build 0)  -->
<!DOCTYPE svg PUBLIC "-//W3C//DTD SVG 1.1//EN" "http://www.w3.org/Graphics/SVG/1.1/DTD/svg11.dtd">
<svg version="1.1" id="Warstwa_1_kopia" xmlns="http://www.w3.org/2000/svg" xmlns:xlink="http://www.w3.org/1999/xlink" x="0px"
	 y="0px" width="425.197px" height="425.197px" viewBox="0 0 425.197 425.197" enable-background="new 0 0 425.197 425.197"
	 xml:space="preserve">
<rect fill-rule="evenodd" clip-rule="evenodd" fill="#FDC867" width="425.197" height="425.197"/>
<g>
	<path fill-rule="evenodd" clip-rule="evenodd" fill="#6A2A0E" d="M21.25,233.43c4.438-4.583,8.497-9.626,13.384-13.667
		c16.849-13.932,36.061-23.918,56.041-32.529c27.402-11.808,55.996-19.068,85.603-22.481c0.73-0.084,1.456-0.218,2.447-0.367
		c-0.827-7.643-1.698-15.111-2.436-22.593c-2.047-20.779-2.065-41.609,0.028-62.344c1.504-14.893,4.326-29.649,6.416-44.486
		c0.782-5.552,3.501-8.354,9.161-9.854c6.325-1.677,11.623-2.547,18.574-3.362c8.65-1.014,16.938-1.276,28.535-1.117
		c9.226,0.126,20.397,1.074,30.518,2.284c38.734,4.628,75.227,16.358,109.075,35.838c9.229,5.314,18.221,11.186,25.289,19.434
		c1.079,1.26,0.4,3.581,0.152,4.54c-1.825,6.404-3.528,12.848-5.495,19.21c-12.153,39.318-29.619,76.021-54.522,108.931
		c-12.542,16.577-26.765,31.549-44.754,42.418c-13.433,8.116-27.803,12.989-43.783,11.746c-0.746-0.058-1.504,0.041-2.608,0.077
		c-0.112,6.664-0.142,13.288-0.35,19.906c-0.79,25.207-4.132,49.974-13.66,73.535c-6.281,15.531-15.059,29.35-28.835,39.464
		c-7.749,5.691-16.381,9.298-25.812,11.061c-1.104,0.206-2.186,0.531-3.277,0.803c-4.036,0.135-8.071,0.271-12.106,0.406
		c-5.398-1.137-10.917-1.879-16.176-3.476c-21.25-6.452-38.111-19.791-53.276-35.353c-31.146-31.959-53.068-69.804-69.581-110.978
		c-2.979-7.43-5.609-15-8.399-22.506C20.826,236.478,20.283,234.721,21.25,233.43z M195.398,49.662
		c5.384-0.714,10.585-1.506,15.813-2.068c5.384-0.578,8.943,1.912,9.47,6.356c0.562,4.729-2.358,7.949-7.841,8.674
		c-5.374,0.711-10.73,1.596-16.123,2.099c-3.119,0.292-4.245,1.68-4.412,4.708c-0.645,11.704-1.862,23.388-2.143,35.097
		c-0.631,26.324,1.41,52.439,8.198,77.987c4.487,16.895,10.647,33.087,21.647,47.033c16.297,20.663,40.257,26.127,63.869,14.657
		c18.99-9.225,33.495-23.679,46.155-40.046c27.203-35.167,45.438-74.78,57.178-117.523c0.645-2.351,0.231-3.739-1.807-4.981
		c-9.241-5.63-18.085-12.031-27.712-16.884c-32.444-16.35-67-25.445-103.196-28.296c-16.26-1.28-32.51-1.42-48.673,1.204
		c-8.603,1.396-8.594,1.461-10.211,10.038C195.52,48.204,195.5,48.707,195.398,49.662z M41.547,248.828
		c4.403-3.375,8.359-6.719,12.65-9.558c1.964-1.3,4.855-2.622,6.836-2.094c2.27,0.606,4.717,2.904,5.783,5.1
		c1.499,3.086-0.01,6.157-2.744,8.315c-4.85,3.825-9.699,7.656-14.638,11.367c-1.577,1.184-1.909,2.218-1.071,4.079
		c16.373,36.361,36.52,70.229,65.336,98.286c11.825,11.514,24.916,21.298,40.643,27.017c15.19,5.524,29.909,4.987,43.913-3.648
		c11.146-6.873,18.372-17.09,23.86-28.652c7.261-15.297,10.905-31.599,13.153-48.291c2.213-16.425,2.529-32.905,2.046-49.268
		c-4.522-2.418-8.827-4.719-13.672-7.308c-0.761,1.049-1.389,2.175-2.256,3.068c-16.601,17.117-44.96,15.54-59.3-3.273
		c-4.309-5.653-4.446-10.235-0.396-13.266c3.995-2.988,7.849-1.763,12.269,3.901c9.957,12.765,29.149,12.545,38.402-0.53
		c-16.653-18.348-24.688-40.872-30.498-64.483c-0.932,0.031-1.557,0.011-2.172,0.08c-3.759,0.426-7.531,0.769-11.272,1.325
		c-32.048,4.764-62.556,14.356-91.315,29.345c-13.336,6.952-26.108,14.784-37.3,24.939c-0.922,0.835-1.847,2.578-1.6,3.621
		C38.98,242.175,40.315,245.314,41.547,248.828z"/>
	<path fill-rule="evenodd" clip-rule="evenodd" fill="#6A2A0E" d="M320.928,114.992c14.148,0.125,25.62,5.536,33.881,17.221
		c3.107,4.396,2.533,9.015-1.277,11.636c-3.651,2.51-7.77,1.423-11.045-2.913c-11.183-14.803-30.646-14.322-40.855,1.055
		c-1.83,2.756-3.892,5.017-7.477,4.938c-6.119-0.137-9.17-6.505-5.76-12.216C295.735,122.424,306.786,116.18,320.928,114.992z"/>
	<path fill-rule="evenodd" clip-rule="evenodd" fill="#6A2A0E" d="M268.317,213.13c-17.634,0.662-33.143-9.991-38.884-26.171
		c-1.771-4.989-0.312-8.996,3.906-10.729c4.148-1.703,8.196,0.2,10.107,5.219c3.147,8.267,8.741,13.797,17.342,15.906
		c7.836,1.92,14.985,0.146,21.277-4.939c0.686-0.554,1.29-1.208,1.971-1.769c3.985-3.287,8.156-3.326,11.142-0.119
		c3.08,3.308,2.703,7.669-1.077,11.4C286.752,209.182,277.76,212.596,268.317,213.13z"/>
	<path fill-rule="evenodd" clip-rule="evenodd" fill="#6A2A0E" d="M220.731,91.011c22.664-0.88,40.777,15.472,42.093,36.771
		c0.297,4.802-2.515,8.41-6.862,8.806c-4.121,0.374-7.179-2.469-8.132-7.197c-0.666-3.313-1.212-6.777-2.629-9.791
		c-5.634-11.991-20.093-16.917-32.13-11.224c-1.022,0.484-2.014,1.046-3.061,1.47c-4.217,1.706-8.131,0.367-9.941-3.359
		c-1.8-3.702-0.558-7.754,3.322-10.055C209.123,93.031,215.335,91.121,220.731,91.011z"/>
	<path fill-rule="evenodd" clip-rule="evenodd" fill="#6A2A0E" d="M242.586,54.206c0.144,4.154-2.947,7.483-7.134,7.681
		c-4.328,0.203-7.897-2.957-8.102-7.169c-0.205-4.264,3.062-7.766,7.352-7.879C239.035,46.724,242.438,49.902,242.586,54.206z"/>
	<path fill-rule="evenodd" clip-rule="evenodd" fill="#6A2A0E" d="M140.191,357.043c1.005-7.141,4.599-13.716,9.916-19.305
		c14.469-15.212,38.139-16.373,54.055-2.792c4.008,3.42,4.785,7.731,2.031,11.26c-2.692,3.451-7.496,3.99-11.367,0.535
		c-13.001-11.603-34.797-6.179-39.842,12.303c-1.256,4.599-4.739,6.639-8.771,5.879
		C142.721,364.266,140.235,361.281,140.191,357.043z"/>
	<path fill-rule="evenodd" clip-rule="evenodd" fill="#6A2A0E" d="M130.485,258.638c0.835,7.162-0.978,14.435-4.707,21.186
		c-10.15,18.378-32.756,25.491-51.59,16.38c-4.743-2.296-6.586-6.271-4.815-10.382c1.732-4.018,6.243-5.755,10.862-3.393
		c15.514,7.936,35.229-2.826,35.433-21.984c0.051-4.767,2.904-7.621,6.998-7.905C126.211,252.291,129.37,254.549,130.485,258.638z"
		/>
	<path fill-rule="evenodd" clip-rule="evenodd" fill="#6A2A0E" d="M78.446,240.575c-3.981,0.235-7.588-3.007-7.856-7.063
		c-0.265-4.008,3.145-7.722,7.383-8.04c4.223-0.319,7.853,2.956,8.008,7.224C86.13,236.771,82.734,240.321,78.446,240.575z"/>
</g>
</svg>
