<?xml version="1.0" encoding="utf-8"?>
<!-- Generator: Adobe Illustrator 16.0.3, SVG Export Plug-In . SVG Version: 6.00 Build 0)  -->
<!DOCTYPE svg PUBLIC "-//W3C//DTD SVG 1.1//EN" "http://www.w3.org/Graphics/SVG/1.1/DTD/svg11.dtd">
<svg version="1.1" id="Warstwa_1_kopia" xmlns="http://www.w3.org/2000/svg" xmlns:xlink="http://www.w3.org/1999/xlink" x="0px"
	 y="0px" width="425.197px" height="425.197px" viewBox="0 0 425.197 425.197" enable-background="new 0 0 425.197 425.197"
	 xml:space="preserve">
<g>
	<path fill-rule="evenodd" clip-rule="evenodd" d="M9.073,226.143c4.851-4.684,9.316-9.865,14.621-13.96
		c18.289-14.117,38.935-23.984,60.342-32.37c29.36-11.5,59.818-18.156,91.208-20.712c0.775-0.063,1.546-0.178,2.599-0.301
		c-0.604-8.102-1.259-16.021-1.772-23.948c-1.426-22.02-0.708-44.021,2.238-65.847c2.116-15.676,5.619-31.161,8.352-46.759
		c1.023-5.835,3.993-8.699,10.024-10.083c6.741-1.546,12.367-2.279,19.738-2.893c9.172-0.765,17.934-0.748,30.177-0.169
		c9.741,0.46,21.507,1.858,32.151,3.493c40.748,6.261,78.876,19.943,113.935,41.716c9.562,5.939,18.85,12.459,26.022,21.42
		c1.096,1.369,0.296,3.797,0,4.801c-2.154,6.7-4.182,13.445-6.483,20.095c-14.229,41.098-33.978,79.243-61.445,113.12
		c-13.834,17.063-29.387,32.373-48.771,43.216c-14.475,8.096-29.825,12.733-46.659,10.854c-0.786-0.087-1.591-0.011-2.758-0.011
		c-0.354,7.034-0.62,14.029-1.074,21.013c-1.728,26.596-6.134,52.636-17.033,77.183c-7.184,16.182-16.943,30.466-31.852,40.661
		c-8.387,5.735-17.631,9.239-27.655,10.767c-1.173,0.179-2.327,0.484-3.49,0.731c-4.267,0-8.534,0-12.801,0
		c-5.662-1.391-11.463-2.37-16.961-4.243c-22.216-7.568-39.552-22.254-55.018-39.226c-31.765-34.859-53.578-75.607-69.56-119.68
		c-2.884-7.952-5.393-16.041-8.075-24.067C8.519,229.347,8.007,227.472,9.073,226.143z M199.518,38.22
		c5.711-0.563,11.233-1.216,16.774-1.625c5.706-0.42,9.378,2.335,9.776,7.049c0.425,5.014-2.772,8.312-8.589,8.883
		c-5.701,0.561-11.39,1.306-17.104,1.646c-3.304,0.198-4.543,1.624-4.826,4.817c-1.096,12.338-2.795,24.636-3.506,36.993
		c-1.6,27.78-0.369,55.436,5.896,82.659c4.142,18.002,10.074,35.322,21.198,50.441c16.48,22.4,41.593,29.021,66.938,17.743
		c20.385-9.07,36.217-23.823,50.168-40.66c29.978-36.178,50.641-77.371,64.554-122.101c0.765-2.459,0.378-3.942-1.732-5.325
		c-9.561-6.273-18.674-13.348-28.67-18.814c-33.688-18.418-69.863-29.249-107.993-33.541c-17.127-1.929-34.286-2.652-51.45-0.453
		c-9.135,1.169-9.128,1.238-11.14,10.241C199.697,36.685,199.659,37.214,199.518,38.22z M29.966,243.126
		c4.771-3.409,9.067-6.801,13.699-9.646c2.12-1.304,5.222-2.598,7.295-1.969c2.376,0.72,4.878,3.233,5.928,5.59
		c1.474,3.313-0.229,6.503-3.193,8.686c-5.258,3.869-10.516,7.743-15.863,11.487c-1.707,1.195-2.094,2.275-1.275,4.271
		c16.004,38.984,36.083,75.468,65.524,106.123c12.082,12.58,25.562,23.377,41.97,29.975c15.848,6.373,31.414,6.327,46.51-2.298
		c12.015-6.864,20.009-17.398,26.216-29.417c8.21-15.898,12.637-32.988,15.603-50.538c2.92-17.271,3.837-34.665,3.906-51.964
		c-4.69-2.714-9.156-5.297-14.181-8.203c-0.842,1.082-1.544,2.249-2.491,3.161c-18.14,17.492-48.037,14.82-62.517-5.558
		c-4.351-6.124-4.333-10.968,0.052-14.024c4.326-3.015,8.353-1.585,12.82,4.555c10.065,13.834,30.344,14.282,40.58,0.8
		c-16.94-19.968-24.626-44.042-29.928-69.185c-0.985,0-1.645-0.043-2.297,0.008c-3.985,0.316-7.981,0.545-11.952,1
		c-34.018,3.896-66.579,12.947-97.486,27.76c-14.332,6.869-28.1,14.689-40.279,25.018c-1.002,0.85-2.042,2.657-1.817,3.768
		C27.491,236.008,28.79,239.371,29.966,243.126z"/>
	<path fill-rule="evenodd" clip-rule="evenodd" d="M329.785,111.667c14.939,0.633,26.863,6.755,35.175,19.389
		c3.127,4.753,2.357,9.611-1.761,12.244c-3.945,2.521-8.257,1.228-11.563-3.468c-11.286-16.031-31.861-16.212-43.189-0.333
		c-2.029,2.845-4.287,5.161-8.071,4.95c-6.457-0.361-9.454-7.195-5.649-13.105C302.914,118.625,314.807,112.422,329.785,111.667z"/>
	<path fill-rule="evenodd" clip-rule="evenodd" d="M270.743,213.455c-18.648,0.075-34.651-11.726-40.142-29.019
		c-1.693-5.332-0.011-9.512,4.505-11.192c4.441-1.652,8.65,0.501,10.491,5.87c3.031,8.842,8.744,14.881,17.753,17.413
		c8.208,2.306,15.822,0.686,22.647-4.462c0.744-0.561,1.406-1.229,2.145-1.798c4.325-3.331,8.732-3.224,11.771,0.269
		c3.137,3.603,2.583,8.196-1.542,12.003C290.354,209.939,280.735,213.226,270.743,213.455z"/>
	<path fill-rule="evenodd" clip-rule="evenodd" d="M224.809,82.79c23.969-0.127,42.521,17.785,43.156,40.327
		c0.143,5.083-2.955,8.794-7.561,9.057c-4.365,0.25-7.494-2.861-8.333-7.89c-0.587-3.522-1.041-7.201-2.43-10.433
		c-5.526-12.866-20.623-18.58-33.538-12.993c-1.098,0.475-2.163,1.034-3.284,1.444c-4.514,1.653-8.601,0.1-10.382-3.9
		c-1.77-3.974-0.314-8.209,3.865-10.502C212.477,84.512,219.105,82.715,224.809,82.79z"/>
	<path fill-rule="evenodd" clip-rule="evenodd" d="M249.195,44.69c0.005,4.393-3.379,7.799-7.807,7.859
		c-4.578,0.062-8.237-3.402-8.303-7.859c-0.066-4.51,3.509-8.093,8.043-8.061C245.71,36.663,249.19,40.14,249.195,44.69z"/>
	<path fill-rule="evenodd" clip-rule="evenodd" d="M130.32,360.916c1.314-7.506,5.343-14.324,11.156-20.039
		c15.821-15.554,40.862-15.941,57.191-1.034c4.112,3.755,4.78,8.336,1.747,11.966c-2.966,3.549-8.059,3.948-12.025,0.161
		c-13.32-12.715-36.533-7.759-42.517,11.583c-1.489,4.813-5.24,6.844-9.471,5.898C132.735,368.633,130.216,365.394,130.32,360.916z"
		/>
	<path fill-rule="evenodd" clip-rule="evenodd" d="M123.554,256.637c0.628,7.595-1.544,15.211-5.722,22.21
		c-11.371,19.051-35.499,25.763-55.068,15.472c-4.928-2.592-6.734-6.855-4.718-11.135c1.972-4.183,6.797-5.857,11.593-3.198
		c16.104,8.931,37.308-1.737,38.202-21.965c0.223-5.033,3.338-7.946,7.671-8.103C119.265,249.782,122.521,252.278,123.554,256.637z"
		/>
	<path fill-rule="evenodd" clip-rule="evenodd" d="M69.23,235.716c-4.213,0.108-7.907-3.444-8.047-7.738
		c-0.138-4.242,3.594-8.044,8.082-8.23c4.472-0.188,8.19,3.4,8.203,7.914C77.48,231.971,73.769,235.6,69.23,235.716z"/>
</g>
</svg>
