<?xml version="1.0" encoding="utf-8"?>
<!-- Generator: Adobe Illustrator 16.0.3, SVG Export Plug-In . SVG Version: 6.00 Build 0)  -->
<!DOCTYPE svg PUBLIC "-//W3C//DTD SVG 1.1//EN" "http://www.w3.org/Graphics/SVG/1.1/DTD/svg11.dtd">
<svg version="1.1" id="Warstwa_1" xmlns="http://www.w3.org/2000/svg" xmlns:xlink="http://www.w3.org/1999/xlink" x="0px" y="0px"
	 width="425.197px" height="425.197px" viewBox="0 0 425.197 425.197" enable-background="new 0 0 425.197 425.197"
	 xml:space="preserve">
<linearGradient id="SVGID_1_" gradientUnits="userSpaceOnUse" x1="212.5981" y1="43.8906" x2="212.5981" y2="373.6867">
	<stop  offset="0" style="stop-color:#A7DCF8"/>
	<stop  offset="1" style="stop-color:#ECF7FE"/>
</linearGradient>
<rect fill-rule="evenodd" clip-rule="evenodd" fill="url(#SVGID_1_)" width="425.197" height="425.197"/>
<g>
	<path fill-rule="evenodd" clip-rule="evenodd" fill="#FAB200" d="M359.95,110.029c-24.614,0.097-44.659-19.743-44.809-44.349
		c-0.15-24.789,19.825-45.003,44.53-45.064c24.531-0.06,44.748,19.946,44.875,44.408C404.676,89.792,384.72,109.931,359.95,110.029z
		"/>
	<path fill-rule="evenodd" clip-rule="evenodd" fill="#FAB200" d="M359.796,95.02c16.466,0.002,29.786-13.318,29.752-29.751
		c-0.035-16.371-13.492-29.708-29.913-29.646c-16.257,0.062-29.435,13.301-29.487,29.625
		C330.094,81.78,343.278,95.018,359.796,95.02z"/>
	<g>
		<path fill-rule="evenodd" clip-rule="evenodd" fill="#057130" d="M112.865,326.426c0-5.268,0-10.25-0.001-15.232
			c0-14.246,0.065-28.493-0.088-42.738c-0.018-1.634-0.856-3.643-1.995-4.819c-7.472-7.723-15.193-15.203-22.704-22.888
			c-4.32-4.421-2.929-10.843,2.568-12.719c3.072-1.048,5.664-0.102,7.869,2.063c3.744,3.677,7.427,7.417,11.15,11.116
			c0.843,0.837,1.748,1.61,3.205,2.945c0-8.064-0.104-15.386,0.032-22.703c0.118-6.301,6.105-9.954,11.19-6.944
			c2.869,1.698,3.806,4.37,3.795,7.627c-0.055,16.495-0.024,32.991-0.024,49.487c0,1.351,0,2.702,0,4.726
			c1.244-1.056,2.082-1.672,2.812-2.398c6.817-6.791,13.563-13.654,20.442-20.382c3.521-3.443,7.935-3.43,11.01-0.257
			c2.91,3.002,2.772,7.303-0.367,10.765c-0.67,0.739-1.402,1.424-2.109,2.131c-9.632,9.633-19.206,19.322-28.94,28.851
			c-2.142,2.097-3.003,4.196-2.921,7.2c0.218,7.971,0.074,15.952,0.074,24.251c8.976-0.642,17.297-2.66,25.158-6.15
			c26.357-11.702,43.2-31.492,50.107-59.62c0.519-2.11,0.281-3.328-1.65-4.645c-33.068-22.547-53.048-53.577-59.88-93.015
			c-0.396-2.28-1.082-3.326-3.521-3.862c-39.083-8.589-79.95,12.603-95.734,49.77c-0.439,1.033-0.833,2.09-1.345,3.086
			c-1.925,3.742-5.753,5.291-9.421,3.857c-3.801-1.485-5.743-5.472-4.289-9.505c3.46-9.596,8.391-18.442,14.93-26.246
			c25.102-29.957,57.07-42.002,95.736-36.246c0.488,0.073,0.979,0.125,1.362,0.172c0.669-7.751,0.857-15.508,2.072-23.099
			c6.933-43.314,29.442-76.218,66.848-99.023c3.154-1.923,6.097-1.622,9.138,0.242c35.595,21.814,57.784,53.069,65.566,94.134
			c1.893,9.988,2.139,20.288,3.098,29.988c6.063-0.648,12.606-1.918,19.157-1.955c35.479-0.195,64.874,29.351,64.034,64.827
			c-0.169,7.14,1.339,11.137,7.458,15.471c22.682,16.065,32.514,44.562,25.814,71.283c-6.773,27.02-28.9,47.265-56.362,51.438
			c-11.848,1.801-23.404,0.444-34.636-3.723c-1.045-0.389-2.094-0.765-3.146-1.13c-0.103-0.036-0.242,0.036-0.585,0.099
			c0,15.405,0,30.853,0,46.914c1.399,0,2.83,0,4.261,0c27.368,0,54.736-0.001,82.104,0.003c1.249,0,2.513-0.071,3.744,0.083
			c3.821,0.48,6.633,3.661,6.641,7.394c0.007,3.73-2.787,6.933-6.607,7.424c-1.354,0.174-2.744,0.092-4.118,0.092
			c-120.845,0.003-241.688,0.003-362.533,0.003c-7.088,0-10.705-2.59-10.636-7.606c0.069-4.908,3.58-7.391,10.47-7.391
			c25.743-0.002,51.486-0.001,77.23-0.001c1.354,0,2.706,0,4.297,0c0-16.053,0-31.844,0-47.212
			c-7.946-1.835-15.903-2.99-23.395-5.523C60.147,327,39.691,307.7,27.778,279.363c-1.316-3.131-1.78-6.395,0.842-8.664
			c1.765-1.526,4.591-2.48,6.955-2.507c3.351-0.036,5.001,2.767,6.198,5.699c4.993,12.23,12.485,22.69,22.325,31.513
			C77.213,317.161,95.801,325.294,112.865,326.426z M307.542,259.557c1.598-1.497,2.49-2.29,3.336-3.133
			c4.867-4.852,9.654-9.789,14.631-14.526c1.382-1.315,3.208-2.529,5.023-2.943c3.396-0.776,6.165,0.755,7.786,3.842
			c1.818,3.461,0.836,6.535-1.81,9.184c-8.919,8.931-17.908,17.793-26.706,26.842c-1.223,1.258-2.127,3.405-2.152,5.157
			c-0.181,12.619-0.023,25.242-0.158,37.862c-0.027,2.51,0.851,3.821,3.007,4.926c14.866,7.612,30.22,8.879,45.576,2.324
			c20.575-8.782,32.298-24.78,33.244-47.127c0.972-22.958-9.638-40.021-30.117-50.68c-6.2-3.227-6.822-4.872-5.854-11.909
			c0.76-5.524,1.472-11.312,0.657-16.75c-3.064-20.469-14.538-34.707-34.324-40.929c-19.947-6.272-37.825-1.326-51.782,14.212
			c-13.866,15.437-16.3,33.481-8.707,52.745c3.182,8.07,1.871,11.172-6.579,13.804c-25.624,7.977-39.219,36.219-29.4,61.078
			c9.938,25.164,39.063,36.646,63.364,25.147c4.275-2.023,6.979-4.394,6.032-9.547c-0.333-1.813-0.206-3.754-0.018-5.61
			c0.277-2.726-0.708-4.649-2.674-6.564c-8.321-8.112-16.521-16.351-24.673-24.633c-3.369-3.422-3.354-8.01-0.241-10.996
			c2.989-2.869,7.439-2.794,10.752,0.408c4.761,4.603,9.383,9.349,14.086,14.014c0.642,0.636,1.406,1.149,2.714,2.204
			c0-2.074,0-3.41,0-4.746c0.003-12.871-0.031-25.743,0.024-38.614c0.02-4.634,1.9-7.232,5.609-8.2
			c4.954-1.293,9.13,2.123,9.32,7.859C307.668,249.054,307.542,253.862,307.542,259.557z M220.076,239.584
			c0.41,0.225,0.819,0.448,1.229,0.673c6.168-5.985,12.398-11.909,18.434-18.025c0.845-0.855,1.153-2.703,1.003-4.011
			c-2.807-24.408,5.098-44.59,24.243-59.944c3.802-3.048,5.147-6.171,5.253-10.582c1.087-45.362-16.751-81.326-53.362-108.109
			c-3.273-2.395-5.511-2.271-8.734,0.113c-38.064,28.152-56.463,65.643-52.54,112.998c2.911,35.15,19.318,63.546,46.788,85.58
			c0.717,0.574,1.552,1.002,2.688,1.726c0-16.365-0.054-32.227,0.055-48.086c0.018-2.563-0.649-4.396-2.514-6.218
			c-8.757-8.56-17.392-17.248-26.012-25.947c-3.697-3.73-3.887-8.076-0.684-11.276c3.074-3.072,7.669-2.814,11.303,0.763
			c5.166,5.084,10.252,10.25,15.394,15.358c0.625,0.622,1.381,1.112,2.458,1.967c0-14.987-0.001-29.354,0-43.722
			c0.001-7.498-0.073-14.997,0.04-22.494c0.068-4.537,3.313-7.73,7.482-7.716c4.165,0.015,7.27,3.214,7.453,7.767
			c0.081,1.997,0.021,3.999,0.022,5.998c0.001,8.189,0,16.377,0,24.565c0.318,0.183,0.636,0.366,0.954,0.548
			c3.494-3.669,6.931-7.394,10.496-10.992c3.865-3.901,8.286-4.229,11.527-1.02c3.297,3.267,2.995,7.596-0.918,11.545
			c-6.511,6.568-13.02,13.139-19.648,19.586c-1.744,1.696-2.472,3.405-2.464,5.861c0.085,26.62,0.053,53.238,0.053,79.858
			C220.076,237.426,220.076,238.505,220.076,239.584z M204.746,389.376c0-31.222,0-62.175,0-93.726
			c-18.769,27.539-44.251,42.75-76.699,46.128c0,16.023,0,31.715,0,47.598C153.666,389.376,179.104,389.376,204.746,389.376z
			 M220.348,327.568c0,20.83,0,41.321,0,61.832c24.099,0,47.927,0,71.881,0c0-15.548,0-30.926,0-46.545
			C264.856,353.301,241.065,348.209,220.348,327.568z"/>
		<path fill-rule="evenodd" clip-rule="evenodd" fill="#057130" d="M28.19,249.533c-4.15,0.045-7.455-3.1-7.562-7.195
			c-0.109-4.179,3.37-7.689,7.564-7.633c4.045,0.056,7.383,3.423,7.383,7.449C35.575,246.24,32.325,249.489,28.19,249.533z"/>
	</g>
</g>
</svg>
