<?xml version="1.0" encoding="utf-8"?>
<!-- Generator: Adobe Illustrator 16.0.3, SVG Export Plug-In . SVG Version: 6.00 Build 0)  -->
<!DOCTYPE svg PUBLIC "-//W3C//DTD SVG 1.1//EN" "http://www.w3.org/Graphics/SVG/1.1/DTD/svg11.dtd">
<svg version="1.1" id="Warstwa_2_kopia" xmlns="http://www.w3.org/2000/svg" xmlns:xlink="http://www.w3.org/1999/xlink" x="0px"
	 y="0px" width="425.197px" height="425.197px" viewBox="0 0 425.197 425.197" enable-background="new 0 0 425.197 425.197"
	 xml:space="preserve">
<path fill="#1D1D1B" d="M364.274,165.628l-142.67-79.655c-4.695-2.622-10.416-2.621-15.111,0l-145.57,81.275
	c-4.66,2.602-7.63,7.406-7.916,12.696c0,0.008-0.004,0.02-0.004,0.027v0.101c-0.011,0.236-0.024,0.471-0.024,0.708
	c0,0.234,0.013,0.466,0.023,0.699l-0.023,103.798c0,8.561,6.939,15.5,15.5,15.5s15.5-6.939,15.5-15.5v-78.092l31.437,17.552v71.436
	c0,24.177,19.669,43.846,43.846,43.846h106.677c24.177,0,43.846-19.669,43.846-43.846v-73.056l54.491-30.424
	c4.904-2.738,7.944-7.916,7.943-13.533C372.218,173.544,369.179,168.367,364.274,165.628z M278.783,296.174
	c0,7.083-5.763,12.846-12.846,12.846H159.261c-7.084,0-12.847-5.763-12.847-12.846v-54.127l57.178,31.924
	c2.348,1.311,4.952,1.966,7.556,1.966s5.208-0.655,7.556-1.966l60.079-33.544V296.174z M211.148,242.686l-110.875-61.904
	l113.776-63.524l110.875,61.904L211.148,242.686z"/>
</svg>
