<?xml version="1.0" encoding="utf-8"?>
<!-- Generator: Adobe Illustrator 16.0.3, SVG Export Plug-In . SVG Version: 6.00 Build 0)  -->
<!DOCTYPE svg PUBLIC "-//W3C//DTD SVG 1.1//EN" "http://www.w3.org/Graphics/SVG/1.1/DTD/svg11.dtd">
<svg version="1.1" id="Warstwa_1" xmlns="http://www.w3.org/2000/svg" xmlns:xlink="http://www.w3.org/1999/xlink" x="0px" y="0px"
	 width="425.197px" height="425.197px" viewBox="0 0 425.197 425.197" enable-background="new 0 0 425.197 425.197"
	 xml:space="preserve">
<linearGradient id="SVGID_1_" gradientUnits="userSpaceOnUse" x1="212.5991" y1="425.1973" x2="212.5991" y2="212.0791">
	<stop  offset="0" style="stop-color:#363636"/>
	<stop  offset="1" style="stop-color:#FFFFFF"/>
</linearGradient>
<rect x="0" fill-rule="evenodd" clip-rule="evenodd" fill="url(#SVGID_1_)" width="425.197" height="425.197"/>
<linearGradient id="SVGID_2_" gradientUnits="userSpaceOnUse" x1="83.8472" y1="364.4453" x2="340.8425" y2="107.45">
	<stop  offset="0" style="stop-color:#D02400"/>
	<stop  offset="0.1935" style="stop-color:#D0CF00"/>
	<stop  offset="0.4946" style="stop-color:#2EFF8E"/>
	<stop  offset="0.7742" style="stop-color:#0013B9"/>
	<stop  offset="1" style="stop-color:#7900B9"/>
</linearGradient>
<path fill-rule="evenodd" clip-rule="evenodd" fill="url(#SVGID_2_)" d="M81.725,194.844c-28.654-22.482-24.988-58.065-8.504-76.826
	c16.423-18.691,51.088-26.812,76.855-1.8c10.817-30.823,32.017-48.619,65.189-47.396c30.445,1.124,49.613,18.866,59.375,47.744
	c12.701-12.441,27.807-17.927,45.375-15.474c13.152,1.836,23.904,8.202,32.516,18.34c15.713,18.5,18.512,53.292-9.545,75.417
	c9.465,4.351,17.822,10.101,24.84,17.671c12.631,13.628,19.668,29.751,20.352,48.297c0.5,13.602,0.686,27.263,0.012,40.848
	c-1.139,22.995-18.123,38.658-41.26,38.799c-17.119,0.105-34.24,0.056-51.361-0.02c-2.283-0.01-3.877,0.556-5.465,2.356
	c-8.053,9.132-18.299,13.606-30.461,13.613c-31.617,0.02-63.233,0.036-94.849-0.01c-12.023-0.018-22.138-4.553-30.117-13.541
	c-1.578-1.777-3.118-2.435-5.433-2.423c-17.12,0.084-34.24,0.113-51.36,0.027c-20.397-0.103-36.182-12.48-40.555-31.661
	c-0.276-1.212-0.567-2.463-0.552-3.693c0.212-17.715-1.124-35.633,1.104-53.096c3.286-25.748,18.423-44.198,41.545-55.991
	C80.17,195.648,80.911,195.263,81.725,194.844z M212.27,340.484c15.621,0,31.24,0.071,46.861-0.021
	c15.043-0.09,25.152-10.278,25.223-25.233c0.023-4.998,0.063-9.997-0.008-14.995c-0.191-13.733,0.52-27.563-0.846-41.182
	c-3.846-38.346-41.221-67.212-79.467-62.173c-37.199,4.901-63.564,34.884-63.652,72.424c-0.035,14.996-0.013,29.991-0.003,44.986
	c0.011,16.214,9.931,26.16,26.156,26.188C181.779,340.507,197.024,340.485,212.27,340.484z M143.622,213.563
	c-0.784-0.548-1.36-1.011-1.992-1.383c-37.5-22.11-87.482,5.143-89.012,48.668c-0.443,12.598-0.178,25.222-0.157,37.833
	c0.027,15.895,9.79,25.634,25.704,25.674c14.361,0.036,28.722,0.007,43.083,0.008c1.198,0,2.396,0,3.305,0
	c0-20.52-0.376-40.497,0.192-60.448c0.217-7.613,2.102-15.301,4.113-22.714C131.625,231.002,137.071,222.005,143.622,213.563z
	 M300.293,324.172c0.693,0.051,1.662,0.181,2.631,0.181c14.873,0.013,29.746,0.088,44.617-0.015
	c14.717-0.103,24.588-10.048,24.725-24.797c0.08-8.622,0.082-17.246-0.004-25.869c-0.061-5.867,0.309-11.835-0.617-17.58
	c-5.371-33.369-33.102-54.53-66.732-51.091c-8.512,0.87-16.443,3.701-23.717,8.379c0.322,0.596,0.459,0.951,0.68,1.241
	c12.773,16.689,18.736,35.544,18.465,56.548C300.111,288.754,300.293,306.343,300.293,324.172z M212.128,180.347
	c26.6,0.034,48.104-21.187,48.213-47.576c0.109-26.629-21.229-48.164-47.927-48.366c-26.116-0.198-48.062,21.68-48.039,47.89
	C164.399,158.865,185.715,180.314,212.128,180.347z M348.252,152.394c-0.016-19.788-15.938-35.87-35.57-35.933
	c-20.057-0.064-36.24,15.978-36.357,36.041c-0.115,19.652,16.27,35.966,36.076,35.919
	C332.324,188.375,348.27,172.352,348.252,152.394z M76.472,152.153c-0.058,20.142,15.933,36.251,36.013,36.281
	c19.701,0.029,35.998-16.348,35.914-36.092c-0.083-19.676-16.1-35.758-35.739-35.888C92.75,116.324,76.529,132.327,76.472,152.153z
	 M177.609,186.771c-5.331-4.885-10.999-10.079-16.86-15.45c-3.622,9.333-9.815,17.051-17.888,23.304
	c3.809,2.122,7.135,4.1,10.591,5.816c0.863,0.429,2.402,0.425,3.192-0.074C163.777,195.864,170.813,191.207,177.609,186.771z
	 M247.127,186.743c6.783,4.432,13.732,9.017,20.75,13.5c0.785,0.501,2.182,0.895,2.887,0.536c3.699-1.884,7.268-4.026,11.197-6.259
	c-8.449-6.149-14.256-14.066-18.031-23.152C258.047,176.75,252.385,181.932,247.127,186.743z"/>
</svg>
