<?xml version="1.0" encoding="utf-8"?>
<!-- Generator: Adobe Illustrator 16.0.3, SVG Export Plug-In . SVG Version: 6.00 Build 0)  -->
<!DOCTYPE svg PUBLIC "-//W3C//DTD SVG 1.1//EN" "http://www.w3.org/Graphics/SVG/1.1/DTD/svg11.dtd">
<svg version="1.1" id="Warstwa_1" xmlns="http://www.w3.org/2000/svg" xmlns:xlink="http://www.w3.org/1999/xlink" x="0px" y="0px"
	 width="425.197px" height="425.197px" viewBox="0 0 425.197 425.197" enable-background="new 0 0 425.197 425.197"
	 xml:space="preserve">
<path fill-rule="evenodd" clip-rule="evenodd" d="M82.358,195.854c-28.654-22.482-24.988-58.065-8.504-76.826
	c16.423-18.691,51.088-26.812,76.855-1.8c10.817-30.823,32.017-48.619,65.188-47.396c30.446,1.124,49.614,18.866,59.376,47.744
	c12.7-12.441,27.807-17.927,45.374-15.474c13.152,1.836,23.905,8.202,32.516,18.34c15.714,18.5,18.512,53.292-9.544,75.417
	c9.464,4.351,17.821,10.101,24.839,17.671c12.631,13.629,19.668,29.752,20.352,48.298c0.501,13.602,0.686,27.263,0.013,40.848
	c-1.14,22.995-18.123,38.658-41.261,38.799c-17.119,0.105-34.24,0.056-51.36-0.02c-2.284-0.01-3.878,0.556-5.466,2.356
	c-8.052,9.132-18.299,13.606-30.461,13.613c-31.616,0.02-63.232,0.036-94.849-0.01c-12.023-0.018-22.138-4.553-30.117-13.541
	c-1.578-1.777-3.118-2.435-5.433-2.423c-17.12,0.084-34.24,0.113-51.36,0.027c-20.397-0.103-36.182-12.48-40.555-31.661
	c-0.276-1.212-0.567-2.463-0.552-3.693c0.212-17.715-1.124-35.633,1.104-53.096c3.286-25.748,18.423-44.198,41.545-55.991
	C80.803,196.658,81.544,196.273,82.358,195.854z M212.903,341.495c15.621,0,31.241,0.071,46.861-0.021
	c15.043-0.09,25.153-10.278,25.223-25.233c0.023-4.998,0.063-9.997-0.007-14.995c-0.192-13.733,0.52-27.563-0.846-41.182
	c-3.846-38.346-41.222-67.213-79.468-62.174c-37.199,4.901-63.564,34.885-63.652,72.425c-0.035,14.996-0.013,29.991-0.003,44.986
	c0.011,16.214,9.931,26.16,26.156,26.188C182.412,341.518,197.657,341.496,212.903,341.495z M144.255,214.573
	c-0.784-0.548-1.36-1.012-1.992-1.384c-37.5-22.11-87.482,5.144-89.012,48.669c-0.443,12.598-0.178,25.222-0.157,37.833
	c0.027,15.895,9.79,25.634,25.704,25.674c14.361,0.036,28.722,0.007,43.083,0.008c1.198,0,2.396,0,3.305,0
	c0-20.52-0.376-40.497,0.192-60.448c0.217-7.613,2.102-15.301,4.113-22.714C132.258,232.013,137.704,223.016,144.255,214.573z
	 M300.926,325.183c0.693,0.051,1.662,0.181,2.631,0.181c14.873,0.013,29.746,0.088,44.617-0.015
	c14.717-0.103,24.589-10.048,24.726-24.797c0.08-8.622,0.082-17.246-0.005-25.869c-0.06-5.867,0.309-11.835-0.616-17.58
	c-5.372-33.369-33.103-54.53-66.732-51.091c-8.513,0.87-16.443,3.701-23.717,8.379c0.321,0.596,0.458,0.951,0.68,1.241
	c12.773,16.689,18.735,35.544,18.464,56.548C300.745,289.765,300.926,307.354,300.926,325.183z M212.762,181.357
	c26.6,0.034,48.104-21.187,48.213-47.576c0.11-26.629-21.229-48.164-47.926-48.366c-26.116-0.198-48.062,21.68-48.039,47.89
	C165.032,159.875,186.349,181.324,212.762,181.357z M348.886,153.404c-0.017-19.788-15.938-35.87-35.571-35.933
	c-20.057-0.064-36.24,15.978-36.357,36.041c-0.115,19.652,16.27,35.966,36.076,35.919
	C332.957,189.386,348.902,173.362,348.886,153.404z M77.105,153.164c-0.058,20.142,15.933,36.251,36.013,36.281
	c19.701,0.029,35.998-16.348,35.914-36.092c-0.083-19.676-16.1-35.758-35.739-35.888C93.384,117.334,77.162,133.337,77.105,153.164z
	 M178.242,187.781c-5.331-4.885-10.999-10.079-16.86-15.45c-3.622,9.333-9.815,17.051-17.888,23.304
	c3.809,2.122,7.135,4.1,10.591,5.816c0.863,0.429,2.402,0.425,3.192-0.074C164.411,196.874,171.446,192.217,178.242,187.781z
	 M247.761,187.753c6.782,4.432,13.732,9.017,20.749,13.5c0.786,0.501,2.183,0.895,2.887,0.536c3.7-1.884,7.268-4.026,11.197-6.259
	c-8.449-6.149-14.256-14.066-18.031-23.152C258.681,177.76,253.019,182.942,247.761,187.753z"/>
</svg>
