<?xml version="1.0" encoding="utf-8"?>
<!-- Generator: Adobe Illustrator 16.0.3, SVG Export Plug-In . SVG Version: 6.00 Build 0)  -->
<!DOCTYPE svg PUBLIC "-//W3C//DTD SVG 1.1//EN" "http://www.w3.org/Graphics/SVG/1.1/DTD/svg11.dtd">
<svg version="1.1" id="Warstwa_1_kopia" xmlns="http://www.w3.org/2000/svg" xmlns:xlink="http://www.w3.org/1999/xlink" x="0px"
	 y="0px" width="425.197px" height="425.197px" viewBox="0 0 425.197 425.197" enable-background="new 0 0 425.197 425.197"
	 xml:space="preserve">
<rect x="0" fill-rule="evenodd" clip-rule="evenodd" fill="#FFF8BB" width="425.197" height="425.197"/>
<g>
	<path fill-rule="evenodd" clip-rule="evenodd" fill="#EA5D0B" d="M237.686,285.565c-1.174-0.759-2.524-1.341-3.493-2.305
		c-15.913-15.838-31.8-31.7-47.643-47.608c-8.629-8.663-10.377-19.302-4.761-28.875c1.072-1.828,2.444-3.547,3.943-5.049
		c30.029-30.081,59.982-60.242,90.218-90.116c12.299-12.153,32.199-7.457,37.495,8.499c0.934,2.808,1.253,5.927,1.283,8.906
		c0.135,13.116,0.059,26.234,0.059,39.352c0,1.359,0,2.719,0,4.476c1.875,0,3.354,0,4.834,0c20.559,0.001,41.118,0.055,61.676-0.021
		c10.041-0.037,17.952,3.574,22.672,12.766c7.105,13.836-2.395,30.951-17.895,32.37c-1.631,0.149-3.269,0.294-4.904,0.295
		c-28.883,0.018-57.767-0.034-86.649,0.039c-10.034,0.024-18.122-3.45-22.606-12.755c-1.584-3.284-2.052-7.224-2.451-10.928
		c-0.403-3.731-0.089-7.54-0.089-10.682c-11.445,11.469-23.124,23.174-35.777,35.854c0.283,0.151,1.765,0.558,2.712,1.5
		c15.749,15.645,31.438,31.349,47.125,47.056c11.588,11.603,11.589,24.494-0.007,36.097c-25.319,25.337-50.638,50.674-75.988,75.979
		c-9.967,9.947-23.196,10.758-32.82,2.122c-8.659-7.771-9.849-21.381-2.608-30.472c1.331-1.672,2.82-3.229,4.333-4.743
		c19.251-19.277,38.512-38.546,57.808-57.777c0.973-0.97,2.285-1.599,3.439-2.386C237.622,286.627,237.653,286.097,237.686,285.565z
		"/>
	<path fill-rule="evenodd" clip-rule="evenodd" fill="#EA5D0B" d="M157.668,229.952c3.949,16.405,17.081,25.122,27.281,36.401
		c-0.809,0.914-1.486,1.772-2.256,2.541c-37.162,37.185-74.321,74.375-111.511,111.533c-9.95,9.941-23.189,10.74-32.808,2.106
		c-8.654-7.77-9.838-21.368-2.618-30.466c1.094-1.378,2.288-2.689,3.532-3.936c38.412-38.432,76.836-76.852,115.263-115.27
		C155.346,232.069,156.191,231.328,157.668,229.952z"/>
	<path fill-rule="evenodd" clip-rule="evenodd" fill="#EA5D0B" d="M237.586,117.335c-5.371-3.837-10.781-7.702-17.233-12.313
		c-0.706,1.139-1.249,2.523-2.212,3.493c-15.016,15.106-30.043,30.201-45.157,45.209c-9.726,9.657-23.063,10.259-32.531,1.649
		c-8.597-7.814-9.699-21.394-2.433-30.471c1.178-1.472,2.474-2.859,3.807-4.194c19.416-19.439,38.844-38.868,58.277-58.29
		c10.643-10.638,21.163-11.608,33.461-3.102c11.915,8.239,23.823,16.485,35.73,24.737c1.021,0.709,2.006,1.473,3.314,2.437
		C258.292,93.947,249.539,107.23,237.586,117.335z"/>
	<path fill-rule="evenodd" clip-rule="evenodd" fill="#EA5D0B" d="M326.145,104.631c-18.621,0.001-33.941-15.235-34.043-33.861
		C292,52.111,307.681,36.505,326.323,36.71c18.733,0.206,33.945,15.505,33.854,34.049
		C360.088,89.381,344.769,104.627,326.145,104.631z"/>
	<path fill-rule="evenodd" clip-rule="evenodd" fill="#EA5D0B" d="M81.662,70.695c9.456,0,18.919-0.196,28.368,0.059
		c8.634,0.232,13.893,7.792,10.924,15.317c-1.541,3.909-4.437,6.375-8.666,7.021c-1.487,0.227-3.014,0.274-4.522,0.276
		c-17.4,0.019-34.801,0.041-52.201-0.024c-2.239-0.009-4.595-0.152-6.69-0.852c-4.943-1.653-7.939-6.912-7.21-11.978
		c0.748-5.192,4.754-9.425,10.126-9.586c9.948-0.297,19.913-0.085,29.872-0.085C81.662,70.795,81.662,70.745,81.662,70.695z"/>
	<path fill-rule="evenodd" clip-rule="evenodd" fill="#EA5D0B" d="M58.963,138.765c-9.457,0-18.919,0.195-28.369-0.058
		c-8.635-0.232-13.895-7.788-10.929-15.315c1.539-3.909,4.435-6.375,8.664-7.022c1.486-0.229,3.013-0.276,4.521-0.278
		c17.4-0.019,34.801-0.041,52.201,0.024c2.239,0.008,4.596,0.151,6.691,0.851c4.943,1.651,7.94,6.909,7.213,11.975
		c-0.745,5.194-4.762,9.034-10.119,9.673c-0.501,0.06-1.003,0.144-1.506,0.145C77.875,138.766,68.419,138.764,58.963,138.765z"/>
	<path fill-rule="evenodd" clip-rule="evenodd" fill="#EA5D0B" d="M81.66,161.522c9.456,0,18.918-0.196,28.368,0.058
		c8.634,0.233,13.894,7.79,10.927,15.317c-1.541,3.909-4.436,6.375-8.665,7.021c-1.487,0.229-3.014,0.276-4.522,0.278
		c-17.4,0.019-34.8,0.04-52.2-0.024c-2.239-0.008-4.597-0.151-6.691-0.852c-4.943-1.651-7.94-6.909-7.212-11.976
		c0.746-5.193,4.752-9.427,10.123-9.587c9.95-0.299,19.914-0.086,29.872-0.086C81.659,161.622,81.659,161.572,81.66,161.522z"/>
</g>
</svg>
