<?xml version="1.0" encoding="utf-8"?>
<!-- Generator: Adobe Illustrator 16.0.3, SVG Export Plug-In . SVG Version: 6.00 Build 0)  -->
<!DOCTYPE svg PUBLIC "-//W3C//DTD SVG 1.1//EN" "http://www.w3.org/Graphics/SVG/1.1/DTD/svg11.dtd">
<svg version="1.1" id="Warstwa_1_kopia" xmlns="http://www.w3.org/2000/svg" xmlns:xlink="http://www.w3.org/1999/xlink" x="0px"
	 y="0px" width="425.197px" height="425.197px" viewBox="0 0 425.197 425.197" enable-background="new 0 0 425.197 425.197"
	 xml:space="preserve">
<rect x="0" fill-rule="evenodd" clip-rule="evenodd" fill="#D4D92F" width="425.197" height="425.197"/>
<g>
	<path fill-rule="evenodd" clip-rule="evenodd" fill="#0053A2" d="M391.727,272.639c-5.125,0-9.861-0.133-14.582,0.083
		c-1.371,0.063-2.771,1-4.035,1.745c-31.633,18.622-63.271,37.237-94.842,55.968c-3.234,1.92-6.227,2.361-9.922,1.605
		c-34.969-7.156-69.97-14.15-104.966-21.167c-10.435-2.092-17.479-10.735-16.536-20.403c1.032-10.582,9.07-17.815,19.993-17.828
		c28.996-0.035,57.991,0.017,86.987-0.031c9.006-0.015,14.994-7.966,12.043-15.909c-1.826-4.913-5.465-7.668-10.721-8.021
		c-2.613-0.177-5.246-0.047-7.871-0.047c-41.494-0.001-82.989,0.113-124.482-0.08c-10.55-0.05-19.039,3.503-26.432,10.973
		c-20.923,21.143-42.08,42.054-63.148,63.054c-0.884,0.881-1.73,1.818-2.712,2.581c-2.681,2.086-5.93,1.906-8.146-0.359
		c-2.215-2.264-2.312-5.491-0.189-8.156c0.62-0.777,1.368-1.455,2.074-2.162c21.176-21.246,42.439-42.403,63.491-63.771
		c9.39-9.53,20.458-14.168,33.843-14.128c44.244,0.133,88.489,0.001,132.731,0.09c10.18,0.021,17.795,4.791,22.043,14.064
		c4.189,9.142,2.766,17.865-3.664,25.548c-4.855,5.803-11.336,8.354-18.885,8.349c-28.121-0.019-56.241-0.007-84.362-0.007
		c-1,0-2.002-0.032-3,0.012c-4.17,0.185-7.025,2.74-7.346,6.544c-0.324,3.858,1.921,6.858,6.09,7.713
		c14.794,3.031,29.605,5.976,44.41,8.953c19.575,3.938,39.14,7.942,58.749,11.705c1.955,0.375,4.5-0.188,6.248-1.208
		c31.385-18.306,62.672-36.779,94.047-55.101c2.273-1.327,5.301-1.38,7.535-2.747c1.654-1.013,2.592-3.198,3.479-5.289
		c-7.814-0.265-15.203-1.87-22.105,3.241c-6.291,4.657-13.4,8.214-20.166,12.227c-4.039,2.394-7.576,1.855-9.436-1.367
		c-1.885-3.264-0.688-6.408,3.447-8.902c8.766-5.289,17.547-10.557,26.32-15.833c0.428-0.258,0.834-0.572,1.289-0.761
		c1.768-0.728,4.498-0.936,5.145-2.211c1.658-3.271,2.393-7.008,3.619-10.961c-5.117,0-9.73-0.09-14.334,0.063
		c-1.146,0.038-2.348,0.726-3.391,1.34c-8.498,5.008-16.967,10.063-25.439,15.116c-2.363,1.41-5.039,1.845-6.922-0.14
		c-1.354-1.426-2.273-3.884-2.201-5.838c0.053-1.474,1.689-3.349,3.121-4.239c9.223-5.735,18.545-11.317,27.938-16.771
		c1.631-0.947,3.744-1.423,5.65-1.47c6.994-0.17,13.996-0.097,20.996-0.059c5.592,0.031,8.041,2.699,7.17,8.325
		c-0.797,5.142-2.08,10.209-3.225,15.665c2.85,0,5.805-0.061,8.758,0.014c4.537,0.115,6.959,2.617,6.598,7.157
		c-0.275,3.469-1.002,6.902-1.6,10.824c1.979,0,3.92-0.009,5.859,0.003c6.074,0.035,8.436,2.601,7.693,8.652
		c-1.236,10.083-4.889,19.298-10.268,27.876c-6.678,10.65-15.293,19.509-25.719,26.388c-31.479,20.771-62.879,41.683-94.783,61.784
		c-21.236,13.379-44.311,15.039-68.006,6.715c-19.891-6.986-39.771-14.009-59.599-21.171c-2.783-1.004-4.44-0.55-6.484,1.55
		c-9.679,9.938-19.464,19.776-29.438,29.416c-1.581,1.527-4.322,2.514-6.523,2.506c-1.448-0.005-3.814-2.058-4.107-3.524
		c-0.397-1.989,0.128-4.886,1.428-6.361c4.453-5.054,9.416-9.659,14.188-14.433c6.627-6.629,13.352-13.164,19.842-19.925
		c2.892-3.011,5.76-3.66,9.719-2.26c22.695,8.031,45.377,16.117,68.218,23.719c18.828,6.267,37.314,4.358,54.029-6.196
		c31.887-20.135,63.43-40.824,94.879-61.639c12.863-8.513,22.652-19.94,28.033-34.696
		C390.561,277.066,391.035,275.013,391.727,272.639z"/>
	<g>
		<path fill-rule="evenodd" clip-rule="evenodd" fill="#5C1F19" d="M209.513,200.647c13.233,0.39,26.476,6.531,36.692,18.937
			c3.068,3.728,3.098,7.087,0.215,9.57c-2.867,2.468-6.258,1.807-9.33-1.821c-16.588-19.597-44.538-19.605-60.955-0.019
			c-3.044,3.632-6.425,4.318-9.331,1.896c-2.894-2.411-2.839-5.794,0.155-9.567C176.48,207.645,191.206,200.614,209.513,200.647z"/>
		<path fill-rule="evenodd" clip-rule="evenodd" fill="#5C1F19" d="M263.602,212.694c13.451,0.903,24.451,8.177,33.188,19.382
			c1.68,2.152,3.178,4.472,4.539,6.841c2.055,3.578,1.32,6.992-1.684,8.815c-3.025,1.837-6.113,0.716-8.578-2.656
			c-2.855-3.904-5.697-7.897-9.084-11.319c-5.418-5.477-12.154-8.588-19.949-9.086c-4.951-0.315-7.668-2.652-7.393-6.451
			C254.908,214.528,257.717,212.541,263.602,212.694z"/>
		<path fill-rule="evenodd" clip-rule="evenodd" fill="#5C1F19" d="M317.57,274.978c-0.035,3.792-2.33,6.454-5.703,6.619
			c-3.344,0.164-5.824-2.234-6.268-6.063c-0.857-7.391-4.512-11.02-11.998-11.916c-3.791-0.454-6.178-2.995-5.967-6.35
			c0.211-3.383,2.859-5.606,6.686-5.619C306.469,251.612,317.686,262.867,317.57,274.978z"/>
	</g>
	<g>
		<path fill-rule="evenodd" clip-rule="evenodd" fill="#006136" d="M253.035,80.427c10.563-21.046,30.125-27.333,49.678-33.398
			c9.59-2.975,19.512-4.333,29.584-2.532c5.375,0.961,6.793,3.447,6.111,8.696c-2.072,15.948-4.176,31.899-5.789,47.896
			c-1.309,12.999-7.189,22.931-18.139,29.858c-11.563,7.313-24.412,10.265-37.891,9.527c-12.854-0.704-20.836-8.535-25.697-19.956
			c-0.615-1.445-1.133-2.932-1.471-3.817c-4.283,4.875-8.488,9.933-13.033,14.666c-1.346,1.402-3.557,2.35-5.521,2.722
			c-14.373,2.721-28.823,5.354-43.466,2.396c-27.381-5.53-44.797-22.313-53.472-48.474c-6.642-20.026-7.612-40.628-5.333-61.456
			c0.554-5.057,4.08-6.748,9.328-5.092c16.162,5.1,32.274,10.388,48.583,14.975c6.164,1.733,12.855,1.491,19.23,2.593
			c22.625,3.908,37.668,17.098,46.082,38.214C252.129,78.022,252.418,78.809,253.035,80.427z M218.434,124.492
			c-1.326-1.533-2.182-2.551-3.068-3.54c-13.9-15.546-27.807-31.089-41.708-46.635c-0.747-0.836-1.593-1.625-2.162-2.574
			c-1.684-2.809-1.521-5.573,0.991-7.77c2.498-2.186,5.26-2.03,7.841-0.005c0.873,0.685,1.566,1.604,2.318,2.438
			c15.375,17.077,30.749,34.154,46.108,51.244c0.73,0.811,1.332,1.737,2.172,2.845c8.229-8.706,12.588-18.362,11.408-29.642
			c-2.23-21.282-19.078-38.096-40.27-39.944c-12.672-1.106-24.851-3.96-36.916-7.615c-8.329-2.523-16.58-5.303-25.222-8.082
			c-0.907,21.704,0.696,42.66,11.059,62.025c7.704,14.4,19.788,23.188,35.679,26.679
			C196.883,126.16,207.194,126.131,218.434,124.492z M264.682,120.816c1.137-1.516,1.898-2.492,2.617-3.497
			c7.705-10.757,15.365-21.545,23.146-32.247c1.049-1.444,2.508-2.931,4.107-3.557c2.496-0.978,4.982-0.225,6.582,2.15
			c1.766,2.619,1.283,5.148-0.494,7.626c-7.924,11.059-15.816,22.141-23.713,33.222c-0.746,1.045-1.434,2.132-2.365,3.524
			c1.186,0.271,1.768,0.508,2.355,0.521c11.078,0.254,21.65-1.695,31.098-7.794c8.1-5.229,12.326-12.636,12.672-22.467
			c0.285-8.094,1.178-16.177,2.041-24.239c0.633-5.91,1.656-11.777,2.527-17.812c-0.775-0.111-1.254-0.261-1.721-0.233
			c-16.492,0.984-31.939,5.501-45.992,14.226c-8.639,5.364-14.217,13.291-16.625,23.147
			C258.633,102.747,259.031,111.925,264.682,120.816z"/>
		<path fill-rule="evenodd" clip-rule="evenodd" fill="#006136" d="M242.604,170.266c0-9.372-0.018-18.745,0.006-28.118
			c0.014-4.734,2.242-7.471,5.986-7.474c3.74-0.002,5.992,2.741,5.996,7.468c0.02,18.995,0.02,37.99,0,56.985
			c-0.004,4.721-2.262,7.477-5.99,7.479c-3.736,0.001-5.979-2.748-5.99-7.473C242.586,189.511,242.604,179.888,242.604,170.266z"/>
	</g>
</g>
</svg>
