<?xml version="1.0" encoding="utf-8"?>
<!-- Generator: Adobe Illustrator 16.0.3, SVG Export Plug-In . SVG Version: 6.00 Build 0)  -->
<!DOCTYPE svg PUBLIC "-//W3C//DTD SVG 1.1//EN" "http://www.w3.org/Graphics/SVG/1.1/DTD/svg11.dtd">
<svg version="1.1" id="Warstwa_1_kopia" xmlns="http://www.w3.org/2000/svg" xmlns:xlink="http://www.w3.org/1999/xlink" x="0px"
	 y="0px" width="425.197px" height="425.197px" viewBox="0 0 425.197 425.197" enable-background="new 0 0 425.197 425.197"
	 xml:space="preserve">
<rect fill-rule="evenodd" clip-rule="evenodd" fill="#DFF2FD" width="425.197" height="425.197"/>
<path fill-rule="evenodd" clip-rule="evenodd" fill="#E30613" d="M46.873,209.784c-12.184-26.119-14.041-52.481-4.489-79.308
	c7.403-20.792,20.711-37.101,38.872-49.551c35.242-24.159,93.906-24.981,131.517,17.199c20.433-21.823,45.387-33.769,75.551-33.865
	c21.796-0.069,41.479,6.478,59.186,19.154c33.053,23.665,55.392,73.848,31.002,126.37c4.626,0,9.053-0.016,13.48,0.004
	c7.523,0.034,12.665,4.704,12.568,11.394c-0.094,6.547-5.158,11.071-12.497,11.095c-8.871,0.028-17.744-0.082-26.611,0.093
	c-1.524,0.03-3.41,0.797-4.484,1.869c-46.17,46.063-92.266,92.202-138.374,138.328c-7.149,7.151-12.805,7.169-19.89,0.08
	c-46.193-46.221-92.377-92.451-138.63-138.611c-0.993-0.991-2.769-1.63-4.202-1.674c-5.992-0.185-11.993-0.078-17.99-0.078
	c-15.887,0-21.313-2.898-21.243-11.348c0.068-8.326,5.403-11.15,21.059-11.151C43.278,209.784,44.86,209.784,46.873,209.784z
	 M211.639,234.656c0.981-1.583,1.718-2.696,2.381-3.854c11.235-19.602,22.451-39.212,33.692-58.808
	c5.44-9.482,15.19-9.726,21.056-0.515c7.51,11.795,15.014,23.595,22.405,35.463c1.246,1.999,2.483,2.931,4.997,2.912
	c17.616-0.132,35.235-0.116,52.853-0.015c2.306,0.013,3.58-0.788,4.777-2.675c10.617-16.729,14.861-34.973,11.539-54.438
	c-5.049-29.575-21.787-50.615-49.883-61.009c-28.201-10.433-54.617-5.432-77.872,13.89c-5.938,4.933-11.101,10.792-16.686,16.157
	c-5.125,4.922-11.571,4.882-16.678-0.086c-4.298-4.182-8.42-8.546-12.765-12.679c-18.222-17.333-39.862-24.664-64.835-21.554
	c-56.539,7.039-86.551,72.358-55.172,119.819c1.257,1.901,2.586,2.592,4.839,2.571c11.744-0.109,23.492-0.158,35.234,0.025
	c2.871,0.045,4.081-0.992,5.129-3.521c8.6-20.74,17.343-41.421,26.043-62.119c0.242-0.575,0.499-1.143,0.727-1.723
	c1.817-4.62,5.157-7.386,10.134-7.634c5.167-0.259,8.718,2.394,11.015,6.932c12.227,24.158,24.472,48.306,36.713,72.457
	C204.65,220.894,208.022,227.532,211.639,234.656z M258.892,197.935c-0.966,1.605-1.672,2.729-2.332,3.881
	c-11.549,20.148-23.134,40.273-34.604,60.463c-2.53,4.454-5.781,7.591-11.163,7.451c-5.39-0.14-8.471-3.471-10.758-8.037
	c-8.775-17.52-17.66-34.983-26.514-52.465c-6.03-11.905-12.076-23.802-18.391-36.249c-0.726,1.578-1.258,2.653-1.722,3.758
	c-6.617,15.761-13.254,31.513-19.817,47.298c-2.258,5.43-6.064,8.372-12.073,8.258c-3.248-0.063-6.499-0.011-9.749-0.011
	c-5.546,0-11.093,0-16.146,0c39.191,39.192,78.363,78.366,116.725,116.729c38.774-38.774,77.909-77.907,116.729-116.729
	c-12.676,0-26.161-0.171-39.639,0.076c-6.177,0.113-10.524-2.096-13.535-7.476c-2.131-3.81-4.646-7.403-6.984-11.097
	C265.662,208.641,262.406,203.491,258.892,197.935z"/>
</svg>
